# xmcd CD database file
#
# Track frame offsets:
#	150
#	30620
#	52554
#	78696
#	100538
#	123857
#	152577
#	176014
#	194902
#
# Disc length: 2873 seconds
#
# Revision: 0
# Processed by: cddbd v1.5.1PL2 Copyright (c) Steve Scherf et al.
# Submitted via: CDex 1.51
#
DISCID=680b3709
DTITLE=Xavier Richardeau - Everlastin'Waltz
DYEAR=2004
DGENRE=Jazz
TTITLE0=Everlastin'waltz
TTITLE1=Barfight
TTITLE2=Hipsters alley
TTITLE3=Phiphi bop
TTITLE4=It makes sense, Maxence
TTITLE5=Preserve the best, improve the rest
TTITLE6=Kitchen jam
TTITLE7=Coconuts dance
TTITLE8=Pick me up
EXTD=YEAR: 2004
EXTT0=
EXTT1=
EXTT2=
EXTT3=
EXTT4=
EXTT5=
EXTT6=
EXTT7=
EXTT8=
PLAYORDER=
